# xmcd CD database file generated by freedbAccess_ocx
#
# Track frame offsets:
#       150
#       10692
#       23172
#       33935
#       45024
#       56082
#       69051
#       79532
#       91873
#       102393
#       113688
#       124357
#       135903
#       145819
#       155170
#       165001
#       176298
#       189362
#       200368
#       210159
#       219464
#       230419
#       242119
#       254242
#
# Disc length: 3549 seconds
#
# Revision: 0
# Processed by: cddbd v1.5.1PL2 Copyright (c) Steve Scherf et al.
# Submitted via: CDnGo 1.95
#
DISCID=2c0ddb18
DTITLE=Various Artist - Ohh Bop Sha Boo - King Vocal Groups Volume One
DYEAR=2003
DGENRE=Doo Wop
TTITLE0=The Guytones - Ohh Bop Sha Boo (Give All Your Love To Me
TTITLE1=The Federals - Come Go With Me
TTITLE2=The Pyramids - Deep In My Heart For You
TTITLE3=The Temptations - Standing Alone
TTITLE4=Otis Williams and The Charms - So Can I
TTITLE5=The Chanters - I Need Your Tenderness
TTITLE6=The Californians - My Angel
TTITLE7=The Mascots - Lonely Rain
TTITLE8=The Crystals - God Only Knows
TTITLE9=The Five Keys - You Broke The Only Heart
TTITLE10=The Tenderfoots - I'm Yours Anyhow
TTITLE11=The Hurricanes - Dear Mother
TTITLE12=Otis Williams and The Charms - Let Some Love In Your Heart
TTITLE13=The Swallows - Who Knows Do You ?
TTITLE14=The Guytones - Tell Me (How Was I To Know)
TTITLE15=The Chanters - My My Darling
TTITLE16=The Mascots - The Story Of My Heart
TTITLE17=The Temptations - Roach's Rock
TTITLE18=Kenny Martin - Ask Me
TTITLE19=The Five Jets - Tell Me You're Mine
TTITLE20=The Velvet Keys - My Baby's Gone
TTITLE21=The Tenderfoots - Those Golden Bells
TTITLE22=The Strangers - Blue Flowers
TTITLE23=The Swallows - Eternally
EXTD=
EXTT0=
EXTT1=
EXTT2=
EXTT3=
EXTT4=
EXTT5=
EXTT6=
EXTT7=
EXTT8=
EXTT9=
EXTT10=
EXTT11=
EXTT12=
EXTT13=
EXTT14=
EXTT15=
EXTT16=
EXTT17=
EXTT18=
EXTT19=
EXTT20=
EXTT21=
EXTT22=
EXTT23=
PLAYORDER=
